<svg width="67" height="48" viewBox="0 0 67 48" fill="none" xmlns="http://www.w3.org/2000/svg">
<g id="header__logo" clip-path="url(#clip0_139_284)">
<path id="Vector" fill-rule="evenodd" clip-rule="evenodd" d="M1.74476 14.8155C0.00991333 19.201 -0.444004 24.0266 0.44048 28.6822C1.32486 33.3377 3.50792 37.6142 6.71343 40.9706C9.91895 44.327 14.0032 46.6128 18.4493 47.5389C22.8957 48.4649 27.5043 47.9895 31.6927 46.1731C35.8808 44.3566 39.4607 41.2803 41.9792 37.3337C42.0464 37.2285 42.1127 37.1227 42.1782 37.0164C42.2244 36.9415 42.2703 36.8661 42.3159 36.7905V48H44.079C48.6124 48 53.0439 46.5924 56.8132 43.9551C60.5826 41.3182 63.5204 37.5698 65.2552 33.1843C66.9901 28.799 67.444 23.9734 66.5595 19.3178C65.6751 14.6623 63.4922 10.3859 60.2866 7.02946C57.081 3.67294 52.9968 1.38722 48.5507 0.461214C44.1043 -0.464905 39.4957 0.0103809 35.3073 1.8269C31.1192 3.64342 27.5393 6.71959 25.0208 10.6663C24.9062 10.8459 24.794 11.0271 24.6841 11.2096V1.43022e-05H22.921C18.3876 1.43022e-05 13.9561 1.40762 10.1868 4.04479C6.41749 6.68184 3.47963 10.4301 1.74476 14.8155ZM21.1579 24V3.77638C17.9443 4.08355 14.8446 5.22681 12.1459 7.11475C8.95646 9.34617 6.47066 12.5179 5.00269 16.2286C3.53472 19.9394 3.15064 24.0225 3.899 27.9619C4.64735 31.9011 6.49456 35.5197 9.20687 38.3597C11.9193 41.1998 15.3751 43.1338 19.1374 43.9174C22.8996 44.701 26.7992 44.2989 30.3431 42.7618C33.7447 41.2865 36.6719 38.8293 38.7861 35.6811C37.1838 36.4776 35.3916 36.9231 33.5 36.9231C26.6838 36.9231 21.1579 31.1371 21.1579 24ZM45.8421 44.2236V24C45.8421 16.8628 40.3162 11.0769 33.5 11.0769C31.6084 11.0769 29.8162 11.5225 28.2139 12.3189C30.3281 9.17073 33.2553 6.71338 36.6569 5.23817C40.2008 3.70111 44.1004 3.29896 47.8626 4.08254C51.6248 4.8661 55.0807 6.80026 57.7932 9.64025C60.5055 12.4804 62.3527 16.0989 63.1009 20.0381C63.8493 23.9775 63.4653 28.0606 61.9973 31.7714C60.5295 35.4821 58.0436 38.6539 54.8541 40.8852C52.1555 42.7731 49.0557 43.9164 45.8421 44.2236ZM33.3236 33.229C28.5948 33.1318 24.7788 29.136 24.686 24.1846H28.0212C30.6523 24.8126 32.7236 26.9811 33.3236 29.7362V33.229ZM33.6762 33.229C38.4051 33.1318 42.2212 29.136 42.314 24.1846H38.9788C36.3473 24.8126 34.276 26.9815 33.6762 29.7369V33.229ZM42.314 23.8154C42.2212 18.864 38.4051 14.8682 33.6762 14.771V18.2631C34.276 21.0183 36.3472 23.1873 38.9783 23.8154H42.314ZM33.3236 14.771C28.5949 14.8682 24.7788 18.864 24.686 23.8154H28.0217C30.6527 23.1873 32.7238 21.0187 33.3236 18.2638V14.771Z" fill="#730220"/>
</g>
<defs>
<clipPath id="clip0_139_284">
<rect width="67" height="48" fill="white"/>
</clipPath>
</defs>
</svg>
